<?xml version="1.0" encoding="UTF-8" standalone="no"?>
<svg
   width="64pt"
   height="64pt"
   viewBox="0 0 22.577778 22.577778"
   version="1.1"
   id="svg831"
   inkscape:version="1.1.2 (1:1.1+202202050950+0a00cf5339)"
   sodipodi:docname="24 - Mall Building.svg"
   inkscape:export-filename="/media/taufikramadhan/Data/Tr Design Studio/Project Design/TR Creative Design/Icon Design/Project Hiring/Icon Icons/019 - Commerce And Shopping/5 - Send/24 - Mall Building.png"
   inkscape:export-xdpi="576"
   inkscape:export-ydpi="576"
   xmlns:inkscape="http://www.inkscape.org/namespaces/inkscape"
   xmlns:sodipodi="http://sodipodi.sourceforge.net/DTD/sodipodi-0.dtd"
   xmlns:xlink="http://www.w3.org/1999/xlink"
   xmlns="http://www.w3.org/2000/svg"
   xmlns:svg="http://www.w3.org/2000/svg"
   xmlns:rdf="http://www.w3.org/1999/02/22-rdf-syntax-ns#"
   xmlns:cc="http://creativecommons.org/ns#"
   xmlns:dc="http://purl.org/dc/elements/1.1/">
  <defs
     id="defs825">
    <pattern
       id="EMFhbasepattern"
       patternUnits="userSpaceOnUse"
       width="6"
       height="6"
       x="0"
       y="0" />
    <pattern
       id="EMFhbasepattern-9"
       patternUnits="userSpaceOnUse"
       width="6"
       height="6"
       x="0"
       y="0" />
    <pattern
       id="EMFhbasepattern-0"
       patternUnits="userSpaceOnUse"
       width="6"
       height="6"
       x="0"
       y="0" />
    <pattern
       id="EMFhbasepattern-7"
       patternUnits="userSpaceOnUse"
       width="6"
       height="6"
       x="0"
       y="0" />
    <pattern
       id="EMFhbasepattern-2"
       patternUnits="userSpaceOnUse"
       width="6"
       height="6"
       x="0"
       y="0" />
    <pattern
       id="EMFhbasepattern-98"
       patternUnits="userSpaceOnUse"
       width="6"
       height="6"
       x="0"
       y="0" />
    <pattern
       id="EMFhbasepattern-6"
       patternUnits="userSpaceOnUse"
       width="6"
       height="6"
       x="0"
       y="0" />
    <pattern
       id="EMFhbasepattern-01"
       patternUnits="userSpaceOnUse"
       width="6"
       height="6"
       x="0"
       y="0" />
    <pattern
       id="EMFhbasepattern-07"
       patternUnits="userSpaceOnUse"
       width="6"
       height="6"
       x="0"
       y="0" />
    <pattern
       id="EMFhbasepattern-8"
       patternUnits="userSpaceOnUse"
       width="6"
       height="6"
       x="0"
       y="0" />
    <pattern
       id="EMFhbasepattern-4"
       patternUnits="userSpaceOnUse"
       width="6"
       height="6"
       x="0"
       y="0" />
    <pattern
       id="EMFhbasepattern-40"
       patternUnits="userSpaceOnUse"
       width="6"
       height="6"
       x="0"
       y="0" />
    <pattern
       id="EMFhbasepattern-08"
       patternUnits="userSpaceOnUse"
       width="6"
       height="6"
       x="0"
       y="0" />
    <pattern
       id="EMFhbasepattern-04"
       patternUnits="userSpaceOnUse"
       width="6"
       height="6"
       x="0"
       y="0" />
    <pattern
       id="EMFhbasepattern-014"
       patternUnits="userSpaceOnUse"
       width="6"
       height="6"
       x="0"
       y="0" />
    <pattern
       id="EMFhbasepattern-27"
       patternUnits="userSpaceOnUse"
       width="6"
       height="6"
       x="0"
       y="0" />
    <pattern
       id="EMFhbasepattern-09"
       patternUnits="userSpaceOnUse"
       width="6"
       height="6"
       x="0"
       y="0" />
    <pattern
       id="EMFhbasepattern-5"
       patternUnits="userSpaceOnUse"
       width="6"
       height="6"
       x="0"
       y="0" />
    <pattern
       id="EMFhbasepattern-018"
       patternUnits="userSpaceOnUse"
       width="6"
       height="6"
       x="0"
       y="0" />
  </defs>
  <sodipodi:namedview
     id="base"
     pagecolor="#ffffff"
     bordercolor="#666666"
     borderopacity="1.0"
     inkscape:pageopacity="0.0"
     inkscape:pageshadow="2"
     inkscape:zoom="4.4249417"
     inkscape:cx="23.61613"
     inkscape:cy="47.910236"
     inkscape:document-units="pt"
     inkscape:current-layer="layer1"
     showgrid="false"
     units="pt"
     inkscape:window-width="1366"
     inkscape:window-height="705"
     inkscape:window-x="0"
     inkscape:window-y="31"
     inkscape:window-maximized="1"
     inkscape:pagecheckerboard="true"
     inkscape:showpageshadow="false"
     inkscape:object-paths="true"
     inkscape:snap-intersection-paths="true"
     inkscape:snap-smooth-nodes="true"
     inkscape:snap-midpoints="true"
     showguides="true"
     inkscape:snap-bbox="true"
     inkscape:bbox-nodes="true"
     inkscape:snap-nodes="false"
     inkscape:snap-global="true"
     inkscape:document-rotation="0">
    <inkscape:grid
       type="xygrid"
       id="grid1378" />
    <sodipodi:guide
       position="0.97013831,21.607643"
       orientation="78.000048,0"
       id="guide1380"
       inkscape:locked="false" />
    <sodipodi:guide
       position="0.97013831,0.97013129"
       orientation="0,78.000005"
       id="guide1382"
       inkscape:locked="false" />
    <sodipodi:guide
       position="21.607639,0.97013129"
       orientation="-78.000048,0"
       id="guide1384"
       inkscape:locked="false" />
    <sodipodi:guide
       position="21.607639,21.607643"
       orientation="0,-78.000005"
       id="guide1386"
       inkscape:locked="false" />
  </sodipodi:namedview>
  <metadata
     id="metadata828">
    <rdf:RDF>
      <cc:Work
         rdf:about="">
        <dc:format>image/svg+xml</dc:format>
        <dc:type
           rdf:resource="http://purl.org/dc/dcmitype/StillImage" />
      </cc:Work>
    </rdf:RDF>
  </metadata>
  <g
     inkscape:label="Icon"
     inkscape:groupmode="layer"
     id="layer1"
     transform="translate(0,-274.42223)">
    <g
       id="g416863"
       style="display:inline;stroke-width:0.794897"
       transform="matrix(1.2580247,0,0,1.2580247,-114.48283,-154.01766)">
      <use
         x="0"
         y="0"
         xlink:href="#path159474"
         id="use161938"
         width="100%"
         height="100%"
         style="stroke-width:0.794897" />
      <path
         style="color:#000000;fill:#d0e2ee;stroke-width:0.794897;stroke-linecap:round;stroke-linejoin:round;stroke-miterlimit:1.5;-inkscape-stroke:none"
         d="m 93.625,344.24805 a 0.26460996,0.26460996 0 0 0 -0.263672,0.26367 v 4.76367 a 0.26460996,0.26460996 0 0 0 0.263672,0.26367 h 12.70117 a 0.26460996,0.26460996 0 0 0 0.26367,-0.26367 v -4.76367 a 0.26460996,0.26460996 0 0 0 -0.26367,-0.26367 z"
         id="path836995" />
      <path
         id="path377463"
         style="color:#000000;fill:#a8c2e1;fill-opacity:1;stroke-width:3.00434;stroke-linecap:round;stroke-linejoin:round;stroke-miterlimit:1.5;-inkscape-stroke:none"
         d="m 353.85742,242.57617 a 1.0001006,1.0001006 0 0 0 -0.99609,0.9961 v 3.0039 h 49.99805 v -3.0039 a 1.0001006,1.0001006 0 0 0 -0.9961,-0.9961 z"
         transform="matrix(0.26458334,0,0,0.26458334,0,280.06666)" />
      <path
         id="path290688"
         style="fill:#a8c2e1;fill-opacity:1;stroke-width:3.00434;stroke-linecap:round;stroke-linejoin:round;stroke-miterlimit:1.5"
         d="m 366.33008,242.57617 0.51367,7.21094 a 2.0175568,2.0175568 0 0 0 0.006,0.0156 c 0.11671,1.50441 1.51843,2.79353 3.02734,2.78321 h 15.98243 c 1.50149,-8.3e-4 2.88776,-1.28621 3.0039,-2.78321 a 2.0175568,2.0175568 0 0 0 0.008,-0.008 l 0.51758,-7.21875 z m 2.52148,11.98047 c -1.58025,0.004 -3.01196,1.44513 -3.00586,3.02539 v 4.99024 h 24.0293 v -4.99024 c 0.008,-1.58026 -1.42369,-3.0198 -3.00391,-3.02539 a 2.0175568,2.0175568 0 0 0 -0.008,0 h -18.00586 a 2.0175568,2.0175568 0 0 0 -0.006,0 z"
         transform="matrix(0.26458334,0,0,0.26458334,0,280.06666)" />
      <path
         style="color:#000000;fill:#d0e2ee;fill-opacity:1;stroke-width:0.794897;stroke-linecap:round;stroke-linejoin:round;stroke-miterlimit:1.5;-inkscape-stroke:none"
         d="m 92.566406,350.33203 a 0.26460996,0.26460996 0 0 0 -0.263672,0.26563 v 5.29101 a 0.26460996,0.26460996 0 0 0 0.263672,0.26563 h 7.408203 7.408201 a 0.26460996,0.26460996 0 0 0 0.26563,-0.26563 v -5.29101 a 0.26460996,0.26460996 0 0 0 -0.26563,-0.26563 z"
         id="path837001" />
      <path
         id="path375680"
         style="color:#000000;fill:#a8c2e1;fill-opacity:1;stroke-width:3.00434;stroke-linecap:round;stroke-linejoin:round;stroke-miterlimit:1.5;-inkscape-stroke:none"
         d="m 349.85742,265.57031 a 1.0001006,1.0001006 0 0 0 -0.99609,1.00391 v 2.99609 h 57.99805 v -2.99609 a 1.0001006,1.0001006 0 0 0 -1.00391,-1.00391 z"
         transform="matrix(0.26458334,0,0,0.26458334,0,280.06666)" />
      <path
         id="path278284"
         style="fill:#a8c2e1;fill-opacity:1;stroke-width:3.00434;stroke-linecap:round;stroke-linejoin:round;stroke-miterlimit:1.5"
         d="m 363.83789,267.5704 v 8.00969 a 2.58424,2.58424 45 0 0 2.58424,2.58424 h 0.41381 v 9.41184 h 11.02148 11.02735 v -9.41966 h 0.4138 a 2.58424,2.58424 135 0 0 2.58424,-2.58424 v -8.00187 z"
         transform="matrix(0.26458334,0,0,0.26458334,0,280.06666)"
         sodipodi:nodetypes="cccccccccc" />
      <path
         style="color:#000000;fill:#fca311;fill-opacity:1;stroke-width:0.794897;stroke-linecap:round;stroke-linejoin:round;stroke-miterlimit:1.5;-inkscape-stroke:none"
         d="m 92.037109,349.00977 a 0.26460996,0.26460996 0 0 0 -0.263672,0.26562 v 1.32227 a 0.26460996,0.26460996 0 0 0 0.263672,0.26367 h 15.875001 a 0.26460996,0.26460996 0 0 0 0.26562,-0.26367 v -1.32227 a 0.26460996,0.26460996 0 0 0 -0.26562,-0.26562 z"
         id="path837007" />
      <path
         id="path159474"
         style="color:#000000;fill:#ec7523;fill-opacity:1;stroke-width:3.00434;stroke-linecap:round;stroke-linejoin:round;stroke-miterlimit:1.5;-inkscape-stroke:none"
         d="m 347.85742,260.57227 c -0.55302,10e-4 -1.00014,0.45088 -0.99804,1.0039 v 0.9961 h 15.54094 a 3.4610077,3.4610077 45 0 1 3.46101,3.46101 v 1.53703 h 17.99805 6 v -1.53703 a 3.4610077,3.4610077 135 0 1 3.46101,-3.46101 h 12.53703 c 0.55532,-0.002 1.00602,0.44858 1.00391,1.0039 v 3.99414 h 0.99609 c 0.55226,0.002 1.0017,-0.44383 1.00391,-0.99609 v -4.99805 c 0.002,-0.55532 -0.44859,-1.00602 -1.00391,-1.0039 z"
         transform="matrix(0.26458334,0,0,0.26458334,0,280.06666)"
         sodipodi:nodetypes="cccccccccccccccc" />
      <path
         style="color:#000000;fill:#d0e2ee;stroke-width:0.794897;stroke-linecap:round;stroke-linejoin:round;stroke-miterlimit:1.5;-inkscape-stroke:none"
         d="m 97.859375,353.24414 c -0.14617,-5.6e-4 -0.265107,0.1175 -0.265625,0.26367 v 3.17578 c 5.13e-4,0.14617 0.119451,0.26424 0.265625,0.26368 h 4.232425 c 0.14617,5.6e-4 0.26511,-0.11751 0.26562,-0.26368 v -3.17578 c -5.2e-4,-0.14617 -0.11945,-0.26423 -0.26562,-0.26367 z"
         id="path837013"
         sodipodi:nodetypes="ccccccccc" />
      <path
         id="path837019"
         style="color:#000000;fill:#3a4d5c;stroke-width:3.00434;stroke-linecap:round;stroke-linejoin:round;stroke-miterlimit:1.5;-inkscape-stroke:none"
         d="m 392.85742,269.57031 a 1.0001006,1.0001006 0 0 0 -0.99804,1.00391 v 4.99805 h 4.49609 v -6.00196 z m 5.49805,0 v 6.00196 h 4.50391 v -4.99805 a 1.0001006,1.0001006 0 0 0 -0.9961,-1.00391 z m -6.49609,8.00196 v 4.99804 a 1.0001006,1.0001006 0 0 0 0.99804,1.00391 h 3.49805 v -6.00195 z m 6.49609,0 v 6.00195 h 3.50781 a 1.0001006,1.0001006 0 0 0 0.9961,-1.00391 v -4.99804 z"
         transform="matrix(0.26458334,0,0,0.26458334,0,280.06666)" />
      <path
         style="color:#000000;fill:#4895ef;fill-opacity:1;stroke-width:0.794897;stroke-linecap:round;stroke-linejoin:round;stroke-miterlimit:1.5;-inkscape-stroke:none"
         d="m 97.59375,347.95117 a 0.26460996,0.26460996 0 0 0 -0.263672,0.26563 v 3.43945 a 0.26460996,0.26460996 0 0 0 0.263672,0.26367 h 4.76367 a 0.26460996,0.26460996 0 0 0 0.26367,-0.26367 v -3.43945 a 0.26460996,0.26460996 0 0 0 -0.26367,-0.26563 z"
         id="path837025" />
      <path
         id="path837035"
         style="color:#000000;fill:#3a4d5c;stroke-width:3.00434;stroke-linecap:round;stroke-linejoin:round;stroke-miterlimit:1.5;-inkscape-stroke:none"
         d="m 374.85938,282.57031 a 1.0001006,1.0001006 0 0 0 -1.00391,1.00391 v 6.99805 h 8.00195 v -6.99805 a 1.0001006,1.0001006 0 0 0 -0.99609,-1.00391 z"
         transform="matrix(0.26458334,0,0,0.26458334,0,280.06666)" />
      <path
         id="path837041"
         style="color:#000000;fill:#3a4d5c;stroke-width:3.00434;stroke-linecap:round;stroke-linejoin:round;stroke-miterlimit:1.5;-inkscape-stroke:none"
         d="m 389.85938,246.57617 a 1.0001006,1.0001006 0 0 0 -1.00391,0.9961 v 4.00195 h 4.00195 v -4.99805 z m 4.99804,0 v 4.99805 h 4 v -4.00195 a 1.0001006,1.0001006 0 0 0 -0.99609,-0.9961 z m -6.00195,6.99805 v 4.00195 a 1.0001006,1.0001006 0 0 0 1.00391,0.9961 h 2.99804 v -4.99805 z m 6.00195,0 v 4.99805 h 3.00391 a 1.0001006,1.0001006 0 0 0 0.99609,-0.9961 v -4.00195 z"
         transform="matrix(0.26458334,0,0,0.26458334,0,280.06666)" />
      <path
         style="color:#000000;fill:#4895ef;fill-opacity:1;stroke-width:0.794897;stroke-linecap:round;stroke-linejoin:round;stroke-miterlimit:1.5;-inkscape-stroke:none"
         d="m 101.16602,352.71484 a 0.26460945,0.26460945 0 0 0 -0.26563,0.26368 v 0.52929 c 0,0.45291 0.4053,0.79297 0.86133,0.79297 0.45602,0 0.85937,-0.34006 0.85937,-0.79297 v -0.52929 a 0.26460945,0.26460945 0 0 0 -0.26367,-0.26368 z"
         id="path837051" />
      <path
         style="color:#000000;fill:#fca311;fill-opacity:1;stroke-width:0.794897;stroke-linecap:round;stroke-linejoin:round;stroke-miterlimit:1.5;-inkscape-stroke:none"
         d="m 99.974609,352.71484 a 0.26460945,0.26460945 0 0 0 -0.263672,0.26368 v 0.52929 c 0,0.45291 0.403343,0.79297 0.859373,0.79297 0.45603,0 0.85938,-0.34006 0.85938,-0.79297 v -0.52929 a 0.26460945,0.26460945 0 0 0 -0.26367,-0.26368 z"
         id="path837057" />
      <path
         style="color:#000000;fill:#4895ef;fill-opacity:1;stroke-width:0.794897;stroke-linecap:round;stroke-linejoin:round;stroke-miterlimit:1.5;-inkscape-stroke:none"
         d="m 98.785156,352.71484 a 0.26460996,0.26460996 0 0 0 -0.265625,0.26368 v 0.52929 c 0,0.45291 0.4053,0.79297 0.861328,0.79297 0.456028,0 0.859371,-0.34006 0.859371,-0.79297 v -0.52929 a 0.26460996,0.26460996 0 0 0 -0.265621,-0.26368 z"
         id="path837063" />
      <path
         style="color:#000000;fill:#fca311;fill-opacity:1;stroke-width:0.794897;stroke-linecap:round;stroke-linejoin:round;stroke-miterlimit:1.5;-inkscape-stroke:none"
         d="m 97.59375,352.71484 a 0.26460996,0.26460996 0 0 0 -0.263672,0.26368 v 0.52929 c 0,0.45291 0.403348,0.79297 0.859375,0.79297 0.456028,0 0.859375,-0.34006 0.859375,-0.79297 v -0.52929 a 0.26460996,0.26460996 0 0 0 -0.263672,-0.26368 z"
         id="path837069" />
      <path
         id="path837075"
         style="color:#000000;fill:#ececec;fill-opacity:1;stroke-width:3.00434;stroke-linecap:round;stroke-linejoin:round;stroke-miterlimit:1.5;-inkscape-stroke:none"
         d="m 372.85938,260.57227 a 1.0001006,1.0001006 0 0 0 -0.9961,1.0039 v 4.99805 a 1.0001006,1.0001006 0 0 0 0.9961,0.99609 h 4 v -6.99804 z m 6.00195,0 v 6.99804 h 4 a 1.0001006,1.0001006 0 0 0 0.99609,-0.99609 v -4.99805 a 1.0001006,1.0001006 0 0 0 -0.99609,-1.0039 z"
         transform="matrix(0.26458334,0,0,0.26458334,0,280.06666)" />
      <path
         id="path837081"
         style="color:#000000;fill:#3a4d5c;stroke-width:3.00434;stroke-linecap:round;stroke-linejoin:round;stroke-miterlimit:1.5;-inkscape-stroke:none"
         d="m 353.85742,269.57031 a 1.0001006,1.0001006 0 0 0 -0.99609,1.00391 v 4.99805 h 4.49609 v -6.00196 z m 5.5,0 v 6.00196 h 4.50391 v -4.99805 a 1.0001006,1.0001006 0 0 0 -1.00391,-1.00391 z m -6.49609,8.00196 v 4.99804 a 1.0001006,1.0001006 0 0 0 0.99609,1.00391 h 3.5 v -6.00195 z m 6.49609,0 v 6.00195 h 3.5 a 1.0001006,1.0001006 0 0 0 1.00391,-1.00391 v -4.99804 z"
         transform="matrix(0.26458334,0,0,0.26458334,0,280.06666)" />
      <path
         id="path837087"
         style="color:#000000;fill:#3a4d5c;stroke-width:3.00434;stroke-linecap:round;stroke-linejoin:round;stroke-miterlimit:1.5;-inkscape-stroke:none"
         d="m 357.85938,246.57617 a 1.0001006,1.0001006 0 0 0 -0.9961,0.9961 v 4.00195 h 3.99219 v -4.99805 z m 4.99804,0 v 4.99805 h 4 v -4.00195 a 1.0001006,1.0001006 0 0 0 -0.99609,-0.9961 z m -5.99414,6.99805 v 4.00195 a 1.0001006,1.0001006 0 0 0 0.9961,0.9961 h 2.99609 v -4.99805 z m 5.99414,0 v 4.99805 h 3.00391 a 1.0001006,1.0001006 0 0 0 0.99609,-0.9961 v -4.00195 z"
         transform="matrix(0.26458334,0,0,0.26458334,0,280.06666)" />
      <path
         style="color:#000000;fill:#143441;fill-opacity:1;stroke-width:0.794897;stroke-linecap:round;stroke-linejoin:round;stroke-miterlimit:1.5;-inkscape-stroke:none"
         d="m 101.82813,346.89258 a 0.2645835,0.2645835 0 0 0 -0.26563,0.26562 0.2645835,0.2645835 0 0 0 0.26563,0.26367 h 0.26367 a 0.2645835,0.2645835 0 0 0 0.26562,-0.26367 0.2645835,0.2645835 0 0 0 -0.26562,-0.26562 z"
         id="path361348" />
      <path
         style="color:#000000;fill:#3a4d5c;fill-opacity:1;stroke-width:0.794897;stroke-linecap:round;stroke-linejoin:round;stroke-miterlimit:1.5;-inkscape-stroke:none"
         d="m 100.50391,346.89258 a 0.2645835,0.2645835 0 0 0 -0.26368,0.26562 0.2645835,0.2645835 0 0 0 0.26368,0.26367 h 0.26562 a 0.2645835,0.2645835 0 0 0 0.26367,-0.26367 0.2645835,0.2645835 0 0 0 -0.26367,-0.26562 z"
         id="path361346" />
      <path
         style="color:#000000;fill:#3a4d5c;fill-opacity:1;stroke-width:0.794897;stroke-linecap:round;stroke-linejoin:round;stroke-miterlimit:1.5;-inkscape-stroke:none"
         d="m 99.181641,346.89258 a 0.2645835,0.2645835 0 0 0 -0.265625,0.26562 0.2645835,0.2645835 0 0 0 0.265625,0.26367 h 0.263671 a 0.2645835,0.2645835 0 0 0 0.265625,-0.26367 0.2645835,0.2645835 0 0 0 -0.265625,-0.26562 z"
         id="path361344" />
      <path
         style="color:#000000;fill:#143441;fill-opacity:1;stroke-width:0.794897;stroke-linecap:round;stroke-linejoin:round;stroke-miterlimit:1.5;-inkscape-stroke:none"
         d="m 97.859375,346.89258 a 0.2645835,0.2645835 0 0 0 -0.265625,0.26562 0.2645835,0.2645835 0 0 0 0.265625,0.26367 h 0.263672 a 0.2645835,0.2645835 0 0 0 0.265625,-0.26367 0.2645835,0.2645835 0 0 0 -0.265625,-0.26562 z"
         id="path356538" />
      <path
         style="color:#000000;fill:#fca311;fill-opacity:1;stroke-width:0.794897;stroke-linecap:round;stroke-linejoin:round;stroke-miterlimit:1.5;-inkscape-stroke:none"
         d="m 93.095703,342.92383 a 0.26460996,0.26460996 0 0 0 -0.263672,0.26562 v 1.32227 a 0.26460996,0.26460996 0 0 0 0.263672,0.26562 h 13.757817 a 0.26460996,0.26460996 0 0 0 0.26562,-0.26562 v -1.32227 a 0.26460996,0.26460996 0 0 0 -0.26562,-0.26562 z"
         id="path837129" />
      <path
         id="path148911"
         style="color:#000000;fill:#ec7523;fill-opacity:1;stroke-width:3.00434;stroke-linecap:round;stroke-linejoin:round;stroke-miterlimit:1.5;-inkscape-stroke:none"
         d="m 351.85742,237.57031 c -0.55226,0.002 -0.9982,0.45165 -0.99609,1.00391 v 0.99609 h 12.1958 a 3.310214,3.310214 42.9691 0 1 3.3019,3.07574 l 0.13706,1.93012 h 22.72266 l 0.13858,-1.93029 a 3.3127874,3.3127874 137.05311 0 1 3.30428,-3.07557 h 9.19386 c 0.55532,-0.002 1.00603,0.44859 1.00391,1.00391 v 4.00195 h 0.99609 c 0.55532,0.002 1.00602,-0.44858 1.00391,-1.0039 v -4.99805 c 0.002,-0.55532 -0.44859,-1.00603 -1.00391,-1.00391 z"
         transform="matrix(0.26458334,0,0,0.26458334,0,280.06666)"
         sodipodi:nodetypes="ccccccccccccccc" />
      <path
         id="path365508"
         style="color:#000000;fill:#4377d1;fill-opacity:1;stroke-width:0.794897;stroke-linecap:round;stroke-linejoin:round;stroke-miterlimit:1.5;-inkscape-stroke:none"
         d="m 102.09202,352.71493 v 0.26355 c 0,0.45291 -0.40335,0.79324 -0.85938,0.79324 -0.10369,0 -0.20458,-0.0177 -0.29869,-0.0501 0.10311,0.342 0.44701,0.57929 0.82785,0.57929 0.45603,0 0.85938,-0.34032 0.85938,-0.79323 v -0.52917 a 0.26460996,0.26460996 0 0 0 -0.26355,-0.26355 z" />
      <path
         id="path365510"
         style="color:#000000;fill:#ec7523;fill-opacity:1;stroke-width:0.794897;stroke-linecap:round;stroke-linejoin:round;stroke-miterlimit:1.5;-inkscape-stroke:none"
         d="m 100.90052,352.71493 v 0.26355 c 0,0.45291 -0.40335,0.79324 -0.85937,0.79324 -0.103689,0 -0.20458,-0.0177 -0.298695,-0.0501 0.103113,0.342 0.447015,0.57929 0.827855,0.57929 0.45603,0 0.85938,-0.34032 0.85938,-0.79323 v -0.52917 a 0.26460996,0.26460996 0 0 0 -0.26355,-0.26355 z" />
      <path
         id="path361922"
         style="color:#000000;fill:#4377d1;fill-opacity:1;stroke-width:0.794897;stroke-linecap:round;stroke-linejoin:round;stroke-miterlimit:1.5;-inkscape-stroke:none"
         d="m 99.711063,352.71493 v 0.26355 c 0,0.45291 -0.40335,0.79324 -0.859377,0.79324 -0.103685,0 -0.204576,-0.0177 -0.298691,-0.0501 0.103113,0.342 0.447016,0.57929 0.827857,0.57929 0.456028,0 0.859378,-0.34032 0.859378,-0.79323 v -0.52917 a 0.26460996,0.26460996 0 0 0 -0.263549,-0.26355 z" />
      <path
         id="path359261"
         style="color:#000000;fill:#ec7523;fill-opacity:1;stroke-width:0.794897;stroke-linecap:round;stroke-linejoin:round;stroke-miterlimit:1.5;-inkscape-stroke:none"
         d="m 98.51957,352.71493 v 0.26355 c 0,0.45291 -0.40335,0.79324 -0.859377,0.79324 -0.103685,0 -0.204576,-0.0177 -0.298691,-0.0501 0.103113,0.342 0.447016,0.57929 0.827857,0.57929 0.456028,0 0.859378,-0.34032 0.859378,-0.79323 v -0.52917 a 0.26460996,0.26460996 0 0 0 -0.263549,-0.26355 z" />
      <path
         style="color:#000000;fill:#3a4d5c;stroke-width:0.794897;stroke-linecap:round;stroke-linejoin:round;stroke-miterlimit:1.5;-inkscape-stroke:none"
         d="m 97.064453,351.39062 a 0.26460996,0.26460996 0 0 0 -0.263672,0.26563 v 1.32227 a 0.26460996,0.26460996 0 0 0 0.263672,0.26562 h 5.820317 a 0.26460996,0.26460996 0 0 0 0.26562,-0.26562 v -1.32227 a 0.26460996,0.26460996 0 0 0 -0.26562,-0.26563 z"
         id="path837135" />
      <path
         style="color:#000000;fill:#4895ef;fill-opacity:1;stroke-width:0.794897;stroke-linecap:round;stroke-linejoin:round;stroke-miterlimit:1.5;-inkscape-stroke:none"
         d="m 97.59375,342.13086 a 0.26460996,0.26460996 0 0 0 -0.263672,0.2832 l 0.263672,3.70508 a 0.26460996,0.26460996 0 0 0 0.265625,0.24414 h 4.232425 a 0.26460996,0.26460996 0 0 0 0.26367,-0.24414 l 0.26562,-3.70508 a 0.26460996,0.26460996 0 0 0 -0.26367,-0.2832 z"
         id="path837149" />
      <path
         style="color:#000000;clip-rule:evenodd;fill:#ececec;fill-opacity:1;fill-rule:evenodd;stroke-width:0.794897;stroke-linecap:round;stroke-linejoin:round;stroke-miterlimit:1.5;-inkscape-stroke:none"
         d="m 99.277344,343.18945 a 0.26460996,0.26460996 0 0 0 -0.261719,0.29883 l 0.142578,1.05859 a 0.26460996,0.26460996 0 0 0 0.261719,0.23047 h 1.449218 a 0.26460996,0.26460996 0 0 0 0.25586,-0.19922 l 0.27734,-1.05664 a 0.26460996,0.26460996 0 0 0 -0.25586,-0.33203 z"
         id="path837155" />
      <path
         style="color:#000000;clip-rule:evenodd;fill:#ececec;fill-opacity:1;fill-rule:evenodd;stroke-width:0.794897;stroke-linecap:round;stroke-linejoin:round;stroke-miterlimit:1.5;-inkscape-stroke:none"
         d="m 98.804687,342.92383 a 0.2645835,0.2645835 0 0 0 -0.265625,0.26562 0.2645835,0.2645835 0 0 0 0.265625,0.26367 h 0.203125 l 0.0078,0.0469 a 0.2645835,0.2645835 0 0 0 0.306641,0.21484 0.2645835,0.2645835 0 0 0 0.214843,-0.30664 l -0.04687,-0.26562 a 0.26460996,0.26460996 0 0 0 -0.259765,-0.21875 z"
         id="path837161" />
      <path
         style="color:#000000;clip-rule:evenodd;fill:#ececec;fill-opacity:1;fill-rule:evenodd;stroke-width:0.794897;stroke-linecap:round;stroke-linejoin:round;stroke-miterlimit:1.5;-inkscape-stroke:none"
         d="m 99.558594,345.04102 a 0.2645835,0.2645835 0 0 0 -0.263672,0.26562 0.2645835,0.2645835 0 0 0 0.263672,0.26367 h 0.126953 a 0.2645835,0.2645835 0 0 0 0.263672,-0.26367 0.2645835,0.2645835 0 0 0 -0.263672,-0.26562 z"
         id="path61560-9" />
      <path
         style="color:#000000;clip-rule:evenodd;fill:#ececec;fill-opacity:1;fill-rule:evenodd;stroke-width:0.794897;stroke-linecap:round;stroke-linejoin:round;stroke-miterlimit:1.5;-inkscape-stroke:none"
         d="m 100.61719,345.04102 a 0.2645835,0.2645835 0 0 0 -0.26563,0.26562 0.2645835,0.2645835 0 0 0 0.26563,0.26367 h 0.12695 a 0.2645835,0.2645835 0 0 0 0.26367,-0.26367 0.2645835,0.2645835 0 0 0 -0.26367,-0.26562 z"
         id="path362542" />
      <path
         id="path133813"
         style="color:#000000;fill:#143441;fill-opacity:1;stroke-width:0.794897;stroke-linecap:round;stroke-linejoin:round;stroke-miterlimit:1.5;-inkscape-stroke:none"
         d="m 94.68363,345.30661 c -0.145315,5.8e-4 -0.262971,0.11823 -0.263552,0.26355 v 0.26561 h 0.263318 a 0.26378323,0.26378323 0 0 1 0.263783,0.26379 v 0.52945 h 0.529166 v -1.3224 z m 1.322398,0 v 0.52916 h 0.265618 c 0.145313,5.8e-4 0.262969,0.11824 0.263549,0.26355 v 0.52969 h 0.529166 v -1.05885 c -5.8e-4,-0.14532 -0.118235,-0.26297 -0.263548,-0.26355 z m -1.58595,1.85156 v 0.52917 h 0.263318 a 0.26378323,0.26378323 0 0 1 0.263783,0.26378 v 0.52945 h 0.529166 v -1.3224 z m 1.58595,0 v 0.52917 h 0.265383 a 0.26378323,0.26378323 0 0 1 0.263784,0.26378 v 0.52945 h 0.265618 c 0.145313,-5.8e-4 0.262968,-0.11823 0.263548,-0.26355 v -1.05885 z" />
      <path
         id="path139213"
         style="color:#000000;fill:#143441;fill-opacity:1;stroke-width:0.794897;stroke-linecap:round;stroke-linejoin:round;stroke-miterlimit:1.5;-inkscape-stroke:none"
         d="m 103.15094,345.30661 c -0.14531,5.8e-4 -0.26297,0.11823 -0.26355,0.26355 v 0.26561 h 0.26332 a 0.26378323,0.26378323 0 0 1 0.26378,0.26379 v 0.52945 h 0.52917 v -1.3224 z m 1.3224,0 v 0.52916 h 0.26562 c 0.14531,5.8e-4 0.26297,0.11824 0.26355,0.26355 v 0.52969 h 0.52916 v -1.05885 c -5.8e-4,-0.14532 -0.11823,-0.26297 -0.26354,-0.26355 z m -1.58595,1.85156 v 0.52917 h 0.26332 a 0.26378323,0.26378323 0 0 1 0.26378,0.26378 v 0.52945 h 0.52917 v -1.3224 z m 1.58595,0 v 0.52917 h 0.26538 a 0.26378323,0.26378323 0 0 1 0.26379,0.26378 v 0.52945 h 0.26562 c 0.14531,-5.8e-4 0.26296,-0.11823 0.26354,-0.26355 v -1.05885 z" />
      <path
         id="path163726"
         style="color:#000000;fill:#143441;fill-opacity:1;stroke-width:0.794897;stroke-linecap:round;stroke-linejoin:round;stroke-miterlimit:1.5;-inkscape-stroke:none"
         d="m 93.624778,351.39047 c -0.14612,5.9e-4 -0.264107,0.1195 -0.263549,0.26562 v 0.26355 h 0.261239 a 0.39918503,0.39918503 0 0 1 0.399185,0.39918 v 0.65967 h 0.529167 v -1.58802 z m 1.455208,0 v 0.52917 h 0.396875 c 0.146929,-5.6e-4 0.266179,0.11869 0.265618,0.26562 v 0.79323 h 0.529167 v -1.3224 c 5.61e-4,-0.14693 -0.11869,-0.26618 -0.265618,-0.26562 z m -1.718757,2.11719 v 0.52916 h 0.261239 a 0.39918503,0.39918503 0 0 1 0.399185,0.39919 v 0.65966 h 0.529167 v -1.58801 z m 1.718757,0 v 0.52916 h 0.263308 a 0.39918503,0.39918503 0 0 1 0.399185,0.39919 v 0.65966 h 0.263549 c 0.146928,5.6e-4 0.266179,-0.11869 0.265618,-0.26561 v -1.3224 z" />
      <path
         id="path171970"
         style="color:#000000;fill:#143441;fill-opacity:1;stroke-width:0.794897;stroke-linecap:round;stroke-linejoin:round;stroke-miterlimit:1.5;-inkscape-stroke:none"
         d="m 103.94404,351.39047 c -0.14612,5.9e-4 -0.26411,0.1195 -0.26355,0.26562 v 0.26355 h 0.26124 a 0.39918503,0.39918503 0 0 1 0.39918,0.39918 v 0.65967 h 0.52917 v -1.58802 z m 1.45521,0 v 0.52917 h 0.39687 c 0.14693,-5.6e-4 0.26618,0.11869 0.26562,0.26562 v 0.79323 h 0.52917 v -1.3224 c 5.6e-4,-0.14693 -0.11869,-0.26618 -0.26562,-0.26562 z m -1.71876,2.11719 v 0.52916 h 0.26124 a 0.39918503,0.39918503 0 0 1 0.39918,0.39919 v 0.65966 h 0.52917 v -1.58801 z m 1.71876,0 v 0.52916 h 0.2633 a 0.39918503,0.39918503 0 0 1 0.39919,0.39919 v 0.65966 h 0.26355 c 0.14693,5.6e-4 0.26618,-0.11869 0.26562,-0.26561 v -1.3224 z" />
      <path
         id="path175644"
         style="color:#000000;fill:#cccccc;fill-opacity:1;stroke-width:0.794897;stroke-linecap:round;stroke-linejoin:round;stroke-miterlimit:1.5;-inkscape-stroke:none"
         d="m 98.65238,349.00974 c -0.146119,5.8e-4 -0.264108,0.1195 -0.263551,0.26562 v 0.26355 h 0.31192 a 0.48079838,0.48079838 0 0 1 0.480798,0.4808 v 0.8416 h 0.529167 v -1.85157 z m 1.58802,0 v 0.52917 h 0.52916 c 0.14612,5.8e-4 0.26411,0.11949 0.26355,0.26561 v 1.05679 h 0.26562 c 0.14531,-5.9e-4 0.26297,-0.11824 0.26355,-0.26355 v -1.3224 c 5.5e-4,-0.14612 -0.11743,-0.26503 -0.26355,-0.26562 z" />
      <path
         id="path318881"
         style="color:#000000;fill:#143441;fill-opacity:1;stroke-width:0.794897;stroke-linecap:round;stroke-linejoin:round;stroke-miterlimit:1.5;-inkscape-stroke:none"
         d="m 97.064361,351.39047 a 0.26460996,0.26460996 0 0 0 -0.263548,0.26562 v 0.26355 h 5.554697 a 0.26460996,0.26460996 0 0 1 0.26562,0.26562 v 1.05885 h 0.26355 a 0.26460996,0.26460996 0 0 0 0.26562,-0.26562 v -1.3224 a 0.26460996,0.26460996 0 0 0 -0.26562,-0.26562 z" />
      <path
         id="path367204"
         style="color:#000000;fill:#143441;fill-opacity:1;stroke-width:0.794897;stroke-linecap:round;stroke-linejoin:round;stroke-miterlimit:1.5;-inkscape-stroke:none"
         d="m 99.181547,354.83005 a 0.26460996,0.26460996 0 0 0 -0.265618,0.26562 v 0.26355 h 1.324471 a 0.26460996,0.26460996 0 0 1 0.26354,0.26561 v 1.32241 h 0.52917 v -1.85157 a 0.26460996,0.26460996 0 0 0 -0.26355,-0.26562 z" />
    </g>
  </g>
</svg>
